<svg width="35" height="40" viewBox="0 0 35 40" fill="none" xmlns="http://www.w3.org/2000/svg">
<path d="M32.1287 16.1304C32.1287 16.129 6.78704 1.49786 6.78704 1.49786C6.01801 1.05491 5.12957 0.84884 4.24098 0.909588L4.24023 39.0904C5.12883 39.151 6.01727 38.945 6.78571 38.5014L32.1287 23.8696C33.4653 23.0976 34.3654 21.6544 34.3654 20C34.3654 18.3457 33.4653 16.9025 32.1287 16.1304Z" fill="#C4F3FF"/>
<path d="M27.9534 23.8695C29.1158 23.0975 29.8987 21.6543 29.8987 20C29.8987 18.3456 29.1158 16.9024 27.9534 16.1304L5.91341 1.49782C5.40137 1.15864 4.82828 0.957936 4.2409 0.909546C3.58324 0.954363 2.92558 1.14465 2.31616 1.49648C0.88337 2.32373 0.0836695 3.82487 0.0833717 5.36829L0.0820312 34.6312C0.0836691 36.1754 0.88337 37.6765 2.31616 38.5038C2.92528 38.8554 3.58295 39.0457 4.24016 39.0906C4.82754 39.0422 5.40048 38.8412 5.91222 38.5015L27.9534 23.8695Z" fill="white"/>
</svg>
