<svg width="41" height="40" viewBox="0 0 41 40" fill="none" xmlns="http://www.w3.org/2000/svg">
<g clip-path="url(#clip0_49_13802)">
<path d="M33.8007 21.5606C33.1417 21.5606 32.6078 22.0947 32.6078 22.7536V34.8594H8.39565V22.7536C8.39565 22.0947 7.86169 21.5606 7.20271 21.5606C6.54373 21.5606 6.00977 22.0947 6.00977 22.7536V36.0523C6.00977 36.7111 6.54373 37.2453 7.20271 37.2453H33.8007C34.4597 37.2453 34.9937 36.7111 34.9937 36.0523V22.7536C34.9937 22.0947 34.4595 21.5606 33.8007 21.5606Z" fill="white"/>
<path d="M40.1505 21.9101L21.3423 3.10404C20.8765 2.63815 20.1212 2.63831 19.6553 3.10404L0.849413 21.9101C0.383529 22.3759 0.383529 23.1313 0.849413 23.597C1.08243 23.8299 1.38783 23.9465 1.69306 23.9465C1.99845 23.9465 2.30369 23.8301 2.53671 23.597L20.4991 5.63451L38.4637 23.597C38.9294 24.0629 39.6848 24.0628 40.1508 23.5969C40.6164 23.1312 40.6164 22.3758 40.1505 21.9101Z" fill="white"/>
<rect x="12.9141" y="22.9883" width="15.6322" height="2.29885" rx="1.14943" fill="white"/>
<rect x="12.9141" y="28.0459" width="15.6322" height="2.29885" rx="1.14943" fill="white"/>
</g>
<defs>
<clipPath id="clip0_49_13802">
<rect width="40" height="40" fill="white" transform="translate(0.5)"/>
</clipPath>
</defs>
</svg>
