<svg width="52" height="52" viewBox="0 0 52 52" fill="none" xmlns="http://www.w3.org/2000/svg">
<g clip-path="url(#clip0_54_1630)">
<circle cx="25.8482" cy="25.8485" r="23.6007" fill="white"/>
<path d="M25.8484 0C11.5736 0 0 11.5736 0 25.8484C0 40.1231 11.5736 51.6967 25.8484 51.6967C40.1231 51.6967 51.6967 40.1231 51.6967 25.8484C51.6967 11.5736 40.1231 0 25.8484 0ZM38.7726 40.3881C23.6286 40.3881 11.3087 28.0681 11.3087 12.9242C11.3087 12.0324 12.0324 11.3087 12.9242 11.3087H18.8887C19.7805 11.3087 20.5042 12.0324 20.5042 12.9242C20.5042 15.7158 21.1117 18.375 22.3104 20.8241C22.501 21.2118 22.5269 21.6545 22.3847 22.0616C22.2458 22.4687 21.9485 22.8015 21.5608 22.9889L19.1504 24.1521C21.1569 27.6448 24.0519 30.5431 27.5414 32.5431L28.7046 30.136C28.892 29.7482 29.2248 29.4542 29.6319 29.312C30.039 29.1731 30.4849 29.199 30.8694 29.3864C33.325 30.5851 35.9809 31.1925 38.7693 31.1925C39.6611 31.1925 40.3848 31.9163 40.3848 32.808V38.7726H40.3881C40.3881 39.6643 39.6643 40.3881 38.7726 40.3881Z" fill="#437EF7"/>
</g>
<defs>
<clipPath id="clip0_54_1630">
<rect width="52" height="52" fill="white"/>
</clipPath>
</defs>
</svg>
