<svg width="122" height="41" viewBox="0 0 122 41" fill="none" xmlns="http://www.w3.org/2000/svg">
<g clip-path="url(#clip0_54_1699)">
<path fill-rule="evenodd" clip-rule="evenodd" d="M17.4099 23.8787L17.3105 23.8537C17.1597 23.8158 17.0158 23.7544 16.8839 23.6716L16.8491 23.6497C16.6668 23.5352 16.5069 23.3875 16.3779 23.2149C16.2545 23.0495 16.1608 22.8632 16.1017 22.6652L16.0864 22.6139C16.0291 22.422 16 22.2227 16 22.0224V21.8373C16 21.5658 16.0331 21.2954 16.0987 21.0321L16.101 21.0226C16.1609 20.782 16.2468 20.5486 16.3572 20.3268L16.4228 20.1951C16.5652 19.9087 16.7362 19.6378 16.933 19.3861L17.0352 19.2553C17.2366 18.9979 17.4574 18.7564 17.6956 18.5329L18.2932 17.9725L19.4398 17.1405L19.4581 17.1302C20.1241 16.7538 20.8213 16.4361 21.5419 16.1805L22.6248 15.7965L23.5166 15.5405C23.7613 15.4586 23.9636 15.2823 24.0789 15.0505L24.1536 14.9005C24.4505 14.304 24.7048 13.687 24.9148 13.0542L24.9817 12.8525L25.6187 11.1885L26.192 9.52454L26.3436 8.95313C26.4121 8.69517 26.4468 8.42934 26.4468 8.16236V7.84879C26.4468 7.77167 26.4361 7.69492 26.415 7.62077L26.3857 7.5178C26.3433 7.36865 26.3626 7.20859 26.4392 7.0739C26.5246 6.92369 26.6727 6.82004 26.8426 6.7916L26.8699 6.78701C26.9273 6.77741 26.9857 6.77581 27.0435 6.78226L27.1344 6.79242C27.3919 6.82116 27.6349 6.92716 27.8317 7.09661L27.8656 7.12583C27.9387 7.18881 28.0054 7.25903 28.0645 7.3354L28.2499 7.57489C28.3634 7.72159 28.4514 7.88661 28.5098 8.06292C28.5777 8.26732 28.6047 8.48317 28.5894 8.69808L28.5489 9.26854L28.3578 10.1645L27.6571 12.0845L26.7653 14.3245L26.629 14.7354C26.5987 14.8266 26.6478 14.9252 26.7386 14.9556C26.7563 14.9615 26.7748 14.9645 26.7934 14.9645H27.1121C27.2627 14.9645 27.4128 14.9486 27.56 14.9169L28.2304 14.7725L29.4407 14.5805L30.5873 14.3885C31.2695 14.2273 31.8373 13.7546 32.1219 13.1112L32.1798 12.9805L33.3264 10.1645L34.2182 8.56454L35.1607 7.18718C35.4651 6.74219 35.8289 6.34124 36.2418 5.99553L36.319 5.9309C36.6161 5.68216 36.9408 5.46878 37.2867 5.29502L37.3829 5.24674C37.566 5.15476 37.7563 5.07814 37.952 5.01766L38.2337 4.93054C38.4009 4.87883 38.575 4.85254 38.75 4.85254H38.7894C38.968 4.85254 39.1452 4.88391 39.3131 4.94525C39.6042 5.05161 39.8563 5.2441 40.0365 5.49736L40.1063 5.59567C40.2969 5.86378 40.416 6.17647 40.4523 6.50393L40.5244 7.15654V7.90806C40.5244 8.25809 40.4683 8.60583 40.358 8.93789C40.2992 9.11532 40.2253 9.28734 40.137 9.45201L39.8237 10.0365L39.7623 10.1207C39.3368 10.7037 38.8675 11.2533 38.3586 11.7645L38.1906 11.9156C37.4975 12.5386 36.7428 13.0884 35.938 13.5565L35.0462 14.0045C34.6767 14.1696 34.3791 14.4637 34.2087 14.8322L33.6449 16.0525L32.6894 18.8685L32.0524 20.6605L31.7339 22.0045L31.4791 23.2845L31.4154 24.2445L31.4607 24.8819C31.4728 25.0531 31.5145 25.2207 31.5839 25.3774C31.6824 25.6 31.834 25.7948 32.0253 25.9443L32.1448 26.0378C32.2528 26.1221 32.3687 26.1955 32.491 26.2569L32.5044 26.2637C32.7114 26.3676 32.9332 26.4385 33.1619 26.4739L33.3734 26.5066C33.5541 26.5345 33.7367 26.5485 33.9195 26.5485H34.4093L34.8506 26.5888C35.0182 26.6042 35.1751 26.678 35.294 26.7976C35.4584 26.9626 35.5332 27.1972 35.4949 27.4273L35.4918 27.4465C35.452 27.6865 35.3003 27.8929 35.0837 28.0017L34.7522 28.1683C34.6094 28.24 34.4561 28.2881 34.2982 28.3108L34.0264 28.3498C33.773 28.3862 33.5161 28.3916 33.2613 28.366L32.8853 28.3282C32.5434 28.2939 32.2064 28.2214 31.8804 28.1123L31.7796 28.0786C31.2866 27.9134 30.8293 27.6552 30.4325 27.3179C30.2811 27.1891 30.1392 27.0495 30.008 26.9001L29.7528 26.6095C29.4204 26.231 29.1636 25.7919 28.9964 25.316C28.9106 25.0716 28.849 24.8193 28.8126 24.5628L28.8095 24.5416C28.7633 24.2167 28.7556 23.8875 28.7866 23.5608L28.8126 23.2868C28.849 22.902 28.9197 22.5213 29.0239 22.1494L29.4407 20.6605L29.9503 19.0605L30.5236 17.4605L30.9695 16.1165L31.0051 16.0234C31.1241 15.7125 30.8452 15.3957 30.5236 15.4765L28.8674 15.7965L26.9564 16.1165L26.1283 16.3085C25.9683 16.3487 25.8372 16.4637 25.7759 16.6175L25.3639 17.6525L24.6632 19.4445L24.0899 21.2365L23.8351 22.2605L23.5803 23.2845L23.4529 24.0525L23.3574 24.7238C23.3365 24.8708 23.2754 25.0089 23.1809 25.1229C23.0681 25.2588 22.9137 25.3534 22.7418 25.3918L22.7175 25.3971C22.5333 25.4383 22.3408 25.4181 22.169 25.3397L22.0298 25.276C21.8351 25.1872 21.6657 25.0504 21.5373 24.8785C21.4148 24.7142 21.3333 24.5229 21.2997 24.3204L21.2632 24.1005C21.2367 23.941 21.2279 23.7791 21.2368 23.6177L21.2622 23.1588C21.2788 22.859 21.3165 22.5608 21.3751 22.2664L21.5419 21.4285L21.9241 20.0205L22.37 18.8685L22.7128 18.1224C22.739 18.0653 22.7696 18.0102 22.8044 17.9579L22.9823 17.6896C22.9984 17.6654 23.007 17.637 23.007 17.6079C23.007 17.5265 22.9413 17.4605 22.8603 17.4605H22.7878C22.7642 17.4605 22.7408 17.4643 22.7184 17.4719L22.382 17.5845C22.2469 17.6298 22.116 17.687 21.9909 17.7555L21.4782 18.0365L20.6501 18.6125L19.822 19.2525L19.7086 19.3665C19.3182 19.7587 18.9718 20.1926 18.6754 20.6605L18.6215 20.7688C18.5304 20.9518 18.4641 21.1462 18.4241 21.3468C18.3796 21.5707 18.3684 21.8001 18.391 22.0273L18.4206 22.3245L18.468 22.8483C18.4788 22.9677 18.4711 23.0881 18.4452 23.2053L18.4067 23.3791C18.3745 23.525 18.2936 23.6554 18.1774 23.7487C18.0864 23.822 17.9775 23.8693 17.8621 23.8858L17.7788 23.8977C17.6558 23.9154 17.5305 23.909 17.4099 23.8787ZM35.1641 12.417L35.1687 12.3807C35.172 12.354 35.1786 12.3279 35.1886 12.303L35.5558 11.3805L36.4476 9.46054L37.212 8.05254L37.975 6.95745C38.0608 6.83441 38.157 6.71914 38.2627 6.61293L38.4202 6.45466C38.464 6.41074 38.5128 6.37238 38.5658 6.34043L38.6454 6.29246C38.7481 6.23055 38.8694 6.2074 38.9876 6.22719C39.1154 6.24859 39.2302 6.31866 39.3079 6.42283L39.311 6.42696C39.355 6.486 39.3861 6.5538 39.402 6.62585L39.4441 6.81594C39.4845 6.99855 39.4885 7.18736 39.4562 7.37158L39.3141 8.18054L39.1934 8.60509C39.1042 8.91889 38.9903 9.22511 38.853 9.52086L38.8157 9.60085C38.6812 9.89069 38.5203 10.1675 38.3353 10.4278C38.0968 10.7631 37.8199 11.0689 37.5099 11.3388L37.0209 11.7645L36.681 12.044C36.4413 12.2411 36.1804 12.4108 35.9034 12.55L35.5798 12.7125C35.5639 12.7205 35.5472 12.727 35.53 12.7319C35.331 12.7891 35.1385 12.6234 35.1641 12.417Z" fill="white"/>
<path fill-rule="evenodd" clip-rule="evenodd" d="M34.3826 21.87L34.3343 22.2101C34.2994 22.4557 34.3007 22.7052 34.3383 22.9504L34.3737 23.1817C34.397 23.3343 34.4481 23.4812 34.5244 23.6154C34.6163 23.7768 34.7425 23.9159 34.8941 24.0225L35.162 24.211C35.2544 24.276 35.3515 24.334 35.4524 24.3846L35.6339 24.4759C35.8338 24.5763 36.0541 24.6285 36.2776 24.6285C36.4322 24.6285 36.586 24.6035 36.7328 24.5544L36.7589 24.5455C36.9735 24.4737 37.1706 24.3571 37.3374 24.2035L37.8085 23.7697C37.8353 23.745 37.8579 23.7165 37.8759 23.6849L37.9764 23.5081C38.0405 23.3956 38.1936 23.375 38.2849 23.4666C38.2915 23.4733 38.2975 23.4803 38.3031 23.4878L38.3784 23.5886C38.4498 23.6842 38.531 23.7723 38.6206 23.851C38.8654 24.0662 39.1662 24.207 39.4876 24.2566L39.5237 24.2622C39.7218 24.2929 39.924 24.2861 40.1197 24.2424C40.303 24.2015 40.4779 24.1286 40.6364 24.0274L40.8782 23.8728C41.0242 23.7795 41.1626 23.6745 41.2919 23.5589L41.6708 23.2205L42.4352 22.3245L43.6455 20.7245L44.2825 19.8285L45.1743 18.6765L46.4482 17.2045L47.2126 16.1805L47.4862 15.8273C47.896 15.2979 48.3837 14.8343 48.9325 14.4525L49.3294 14.1535C49.4026 14.0984 49.4917 14.0685 49.5832 14.0685H49.5971C49.7708 14.0685 49.9251 14.1803 49.9801 14.3459C50.0032 14.4157 50.0072 14.4905 49.9912 14.5622L49.9319 14.8304C49.9028 14.9618 49.855 15.0883 49.7899 15.206L49.5695 15.6045L49.3996 15.9249C49.1736 16.3505 48.9104 16.755 48.6129 17.1336C48.2748 17.5638 47.8942 17.9584 47.4769 18.3116L46.8941 18.8045L46.1131 19.3801C45.9985 19.4645 45.9055 19.5752 45.8421 19.7028L45.7986 19.79C45.7651 19.8574 45.7476 19.9318 45.7476 20.0073C45.7476 20.1747 45.8335 20.3305 45.975 20.4192L46.1556 20.5327C46.223 20.5751 46.2843 20.6266 46.3378 20.6856L46.6543 21.0354C46.8139 21.2118 46.9587 21.4014 47.0872 21.6021L47.2937 21.9249C47.4094 22.1056 47.5099 22.2958 47.5941 22.4934C47.7633 22.89 47.8653 23.3123 47.8959 23.7427L47.9133 23.9885C47.8775 24.5288 47.431 24.9485 46.8921 24.9485H46.8304H45.3654C44.433 24.9485 43.5025 25.0328 42.5852 25.2004L42.5626 25.2045C41.7156 25.4598 40.898 25.8044 40.1231 26.2326L40.0146 26.2925L39.3028 26.8289C38.9285 27.111 38.5746 27.4194 38.2438 27.7517L38.0497 27.9468C37.7466 28.2513 37.4722 28.5834 37.2301 28.9389L37.1511 29.055C36.8952 29.4307 36.6845 29.8355 36.5231 30.261L36.4783 30.3791C36.3309 30.7678 36.2344 31.1739 36.191 31.5875L36.1867 31.6292C36.1484 31.9954 36.1551 32.3648 36.207 32.7294L36.22 32.8207C36.2442 32.991 36.2816 33.1592 36.332 33.3235C36.4504 33.7102 36.6387 34.0717 36.8875 34.3898L36.9692 34.4943C37.1306 34.7007 37.3117 34.8905 37.51 35.0613L37.683 35.2104C37.9625 35.451 38.2678 35.6599 38.5932 35.833L38.6142 35.8441C38.994 36.0461 39.3992 36.196 39.8188 36.2897C40.1607 36.3661 40.5098 36.4045 40.86 36.4045H41.2886L41.7748 36.3557C42.2986 36.3031 42.8154 36.1957 43.3171 36.0353L43.4431 35.995C43.7897 35.8843 44.1258 35.7426 44.4471 35.5716C44.8457 35.3595 45.2197 35.1038 45.5622 34.8088L45.9387 34.4845L46.8304 33.5885L47.6585 32.5005L48.5503 31.0925L49.3784 29.3005L49.8395 27.9688C49.8719 27.8756 49.893 27.779 49.9028 27.6808L49.9991 26.7123C50.0084 26.6194 50.0864 26.5485 50.1794 26.5485C50.1974 26.5485 50.2153 26.5513 50.2327 26.5566L51.0346 26.8045L53.8374 27.2525L58.0416 27.8285L61.354 28.1485H64.0294L67.6603 27.8285L70.6542 27.2525L73.0111 26.5485L75.5591 25.4605L77.279 24.5645L78.8078 23.6045L79.5722 23.0925L80.2787 22.5348C80.4017 22.4378 80.5101 22.3237 80.601 22.1958L80.6558 22.1187C80.7395 22.001 80.8004 21.8684 80.8353 21.7281L80.8645 21.6113C80.8942 21.4916 80.8921 21.3662 80.8584 21.2475L80.8253 21.1306C80.7977 21.0342 80.7349 20.9518 80.6493 20.9002C80.5339 20.8306 80.3911 20.8251 80.2708 20.8856L80.0818 20.9805L79.0626 21.6845L77.7249 22.5805L76.1961 23.6045L74.0303 24.6925L71.546 25.5885L68.998 26.2925L66.1315 26.6765L63.1376 26.8045L60.08 26.6765L56.7676 26.2925L53.8374 25.7805L51.5442 25.3965L50.711 25.2769C50.4216 25.2355 50.2065 24.9864 50.2065 24.6925V24.6774C50.2065 23.9662 50.0993 23.2593 49.888 22.5805C49.6763 21.9848 49.4033 21.413 49.0733 20.8742L49.0599 20.8525L48.8051 20.4685L48.5832 20.1897C48.5619 20.1631 48.5503 20.1299 48.5503 20.0958C48.5503 20.0484 48.5726 20.0038 48.6104 19.9754L49.0599 19.6365L49.888 18.9325L50.6524 18.2285L51.3531 17.4605C51.6496 17.0351 51.9002 16.5792 52.1008 16.1005L52.3086 15.6045L52.4963 15.0392C52.5829 14.7778 52.6271 14.5041 52.6271 14.2285V14.0437C52.6271 13.8906 52.6027 13.7385 52.5544 13.5933C52.4769 13.3595 52.3402 13.1499 52.1579 12.985L52.1028 12.9352C51.9031 12.7547 51.6637 12.6243 51.4042 12.5548L51.1408 12.4841C50.9434 12.4313 50.7402 12.4045 50.5361 12.4045C50.1932 12.4045 49.8544 12.48 49.5438 12.6257L49.3239 12.7288C49.1482 12.8111 48.9799 12.9083 48.8206 13.0191L48.6912 13.109C48.3859 13.3215 48.1036 13.5656 47.849 13.8373L47.2126 14.5165L45.6839 16.1805L44.6647 17.4605L43.327 19.3805L41.2886 21.9405L40.7232 22.5655C40.6776 22.6158 40.613 22.6445 40.5453 22.6445H40.4914C40.4335 22.6445 40.3805 22.6116 40.3545 22.5595C40.3406 22.5316 40.3355 22.5 40.3399 22.469L40.384 22.1585C40.3926 22.0986 40.4057 22.0396 40.4234 21.9817L40.5124 21.691C40.6051 21.3887 40.7257 21.0958 40.8731 20.8163L41.2249 20.1485L41.9893 18.9325L42.69 17.7805L43.1996 16.8205L43.3564 16.4266C43.42 16.2671 43.4289 16.0909 43.382 15.9257C43.3459 15.799 43.2783 15.6837 43.1857 15.5905L42.8174 15.2205C42.6543 15.0566 42.433 14.9645 42.2023 14.9645H41.9893H41.8717C41.7095 14.9645 41.5613 15.0566 41.4888 15.2023L41.4804 15.2192C41.4389 15.3025 41.3684 15.3677 41.2824 15.4022C41.1666 15.4488 41.0355 15.435 40.9318 15.3656L40.9064 15.3485C40.7388 15.2644 40.5541 15.2205 40.3667 15.2205H40.142H40.0072C39.6749 15.2205 39.3453 15.2789 39.0331 15.393C38.8808 15.4486 38.7336 15.5171 38.593 15.5979L38.4828 15.6611C38.1048 15.8782 37.7614 16.1512 37.4643 16.471L37.0207 16.9485C36.3423 17.8007 35.729 18.7032 35.1862 19.6484L35.046 19.8925L34.7237 20.6483C34.5571 21.0387 34.4425 21.4495 34.3826 21.87ZM38.2027 30.5151L38.0432 30.8677C37.9566 31.0593 37.8964 31.2621 37.8646 31.4701C37.8122 31.8113 37.8371 32.16 37.9372 32.4902L38.0023 32.7055C38.1511 33.1964 38.4492 33.6282 38.855 33.94C39.1568 34.1718 39.5083 34.3297 39.8814 34.4012L40.0398 34.4315C40.4438 34.5088 40.8588 34.5052 41.2613 34.4209L41.6178 34.3464C41.9916 34.268 42.3582 34.1452 42.7042 33.983C42.9897 33.8491 43.2645 33.6873 43.5198 33.502L43.7071 33.366C44.0898 33.0884 44.4454 32.7747 44.7689 32.4293L44.8504 32.3424C45.1508 32.0216 45.4266 31.6785 45.6756 31.3158L45.8327 31.087C46.3267 30.3674 46.7434 29.5973 47.0761 28.7895L47.34 28.1485L47.5824 27.2969C47.6752 26.9702 47.7222 26.6322 47.7222 26.2925C47.7222 26.2208 47.6663 26.1617 47.5951 26.1581L46.4482 26.1005L44.601 26.1645L43.5181 26.3565L43.032 26.5107C42.5503 26.6636 42.0846 26.8629 41.6411 27.1059C41.1526 27.3736 40.6941 27.6928 40.2731 28.0581L39.505 28.7245L39.1228 29.1342C38.7431 29.541 38.4324 30.0074 38.2027 30.5151ZM36.1727 22.339L36.2563 21.8765C36.426 21.3226 36.6357 20.7818 36.8836 20.2586L37.1481 19.7005L37.9762 18.3565L38.6769 17.3965L39.2867 16.6817C39.3895 16.5613 39.5051 16.4525 39.6313 16.3574L39.7905 16.2374C39.8966 16.1575 40.0162 16.0978 40.1438 16.0612L40.3003 16.0163C40.3638 15.9981 40.4305 15.9953 40.4952 16.0083C40.6326 16.0359 40.7466 16.1313 40.7987 16.2619L40.8093 16.2886C40.8313 16.3441 40.8427 16.4032 40.8427 16.4629V16.5451C40.8427 16.6841 40.8104 16.8213 40.7486 16.9457L40.4605 17.5245L39.6961 19.0605L38.868 20.5325L38.1673 21.5565L37.7749 22.1699C37.6545 22.358 37.5197 22.5365 37.3719 22.7036L37.1437 22.9615C37.1042 23.0061 37.0606 23.0465 37.013 23.0824L36.707 23.3129C36.626 23.374 36.5176 23.3838 36.427 23.3382C36.359 23.3041 36.3086 23.2424 36.2885 23.1686L36.1932 22.8175C36.1509 22.6615 36.1439 22.4979 36.1727 22.339Z" fill="white"/>
<path fill-rule="evenodd" clip-rule="evenodd" d="M54.1181 19.5454L54.2838 19.5084C54.7496 19.3383 55.1955 19.1176 55.6136 18.8502L55.6852 18.8044L56.1045 18.4734C56.419 18.2252 56.7137 17.9525 56.9859 17.658C57.265 17.3561 57.5194 17.0322 57.7469 16.6894L57.9147 16.4364L58.1306 16.0026C58.2411 15.7806 58.325 15.5462 58.3806 15.3044L58.4112 15.1712C58.4621 14.9493 58.4792 14.7209 58.4617 14.4939L58.4519 14.3652C58.4337 14.1275 58.3647 13.8965 58.2494 13.6881L58.222 13.6384C58.1452 13.4995 58.0444 13.3755 57.9244 13.2721C57.751 13.1228 57.5423 13.0208 57.3185 12.9758L57.2503 12.9621C57.0995 12.9318 56.9452 12.9235 56.792 12.9375L56.6436 12.9511C56.4302 12.9706 56.2203 13.0177 56.019 13.0912C55.7559 13.1873 55.5109 13.3274 55.2942 13.5055L54.9208 13.8124L54.7838 13.9289C54.3241 14.3198 53.9008 14.7521 53.5194 15.2204L52.8824 16.1804L52.2454 17.3964L52.202 17.5056C51.9766 18.0718 51.7994 18.6562 51.6721 19.2524L51.6065 19.7146C51.5655 20.0025 51.5642 20.2946 51.6024 20.5828L51.6196 20.713C51.6544 20.9748 51.7321 21.229 51.8497 21.4652L51.8645 21.4949C51.99 21.747 52.162 21.9726 52.3715 22.1598C52.5412 22.3113 52.7332 22.4356 52.9408 22.5282L52.9587 22.5362C53.1196 22.6082 53.2886 22.6604 53.4618 22.6921L53.5947 22.7163C53.7973 22.7533 54.0052 22.7493 54.2062 22.7044C54.3839 22.6647 54.5534 22.5938 54.7065 22.4949L55.0918 22.246C55.2748 22.1278 55.4482 21.9952 55.6104 21.8494L56.577 20.9804L57.5325 19.9564L58.2969 19.1244C58.4379 18.9827 58.6791 19.083 58.6791 19.2835V19.3804V19.8315C58.6791 20.041 58.7167 20.249 58.7899 20.4452C58.8432 20.5881 58.9149 20.7234 59.0032 20.8475C59.1259 21.0199 59.2786 21.1687 59.4542 21.2862L59.4727 21.2986C59.6639 21.4267 59.8772 21.5181 60.1015 21.5682L60.1232 21.573C60.2642 21.6045 60.4083 21.6204 60.5528 21.6204H60.7705C61.0301 21.6204 61.2872 21.5707 61.5283 21.4738C61.7088 21.4012 61.8781 21.3031 62.031 21.1824L62.3692 20.9155C62.5841 20.7458 62.785 20.5586 62.9698 20.3561L63.3929 19.8924L63.7995 19.4256C63.8245 19.3969 63.8606 19.3804 63.8985 19.3804C63.971 19.3804 64.0299 19.4395 64.0299 19.5125V19.8138C64.0299 19.8658 64.0392 19.9173 64.0574 19.966L64.0971 20.0725C64.1775 20.2879 64.3256 20.4712 64.5187 20.5947L64.6927 20.7061C64.8443 20.803 65.0106 20.8748 65.185 20.9186L65.2115 20.9252C65.3575 20.9618 65.5075 20.9804 65.6579 20.9804H65.8837C66.0065 20.9804 66.1293 20.9703 66.2504 20.9499C66.632 20.886 66.9905 20.7235 67.2908 20.4785L67.8519 20.0204L68.6163 19.2524L69.1896 18.6764L69.418 18.4469C69.4349 18.43 69.4579 18.4204 69.4817 18.4204C69.5315 18.4204 69.5718 18.461 69.5718 18.5109V18.99C69.5718 19.0784 69.5923 19.1656 69.6316 19.2447L69.7122 19.4064C69.7877 19.5583 69.8915 19.6944 70.0179 19.8073L70.239 20.0046C70.346 20.1003 70.4618 20.1856 70.5846 20.2597C70.8823 20.4392 71.2165 20.5488 71.5623 20.5804L71.7376 20.5964C72.1147 20.5964 72.4907 20.506 72.828 20.3367C72.9909 20.2548 73.1465 20.1539 73.2875 20.038L73.4447 19.9088C73.665 19.7276 73.8668 19.5249 74.0471 19.3036L74.3054 18.9863C74.3346 18.9504 74.3675 18.9178 74.4034 18.889C74.5693 18.7556 74.7892 18.7112 74.9934 18.7698L75.0185 18.7771C75.0817 18.7952 75.147 18.8044 75.2126 18.8044H75.26C75.4557 18.8044 75.6476 18.7491 75.8136 18.6449L75.9851 18.5372C76.0411 18.502 76.0944 18.4628 76.1444 18.4196L76.4889 18.1229C76.5059 18.1084 76.5273 18.1004 76.5494 18.1004C76.6009 18.1004 76.6424 18.1422 76.6424 18.1938V18.7305C76.6424 18.8619 76.6833 18.9899 76.7593 19.0967L76.8337 19.2013C76.9172 19.3189 77.0282 19.4142 77.1569 19.4788C77.2794 19.5404 77.4145 19.5724 77.5514 19.5724H77.6164C77.7706 19.5724 77.9213 19.5266 78.0494 19.4407C78.1707 19.3594 78.2669 19.2457 78.3272 19.1125L78.5534 18.6124L79.1267 17.4604L79.8911 15.9884L80.7192 14.7084L81.6747 13.4924L82.5665 12.5324L83.3309 11.8284L83.6992 11.5113C83.7503 11.4673 83.8108 11.4359 83.8761 11.4195L83.9799 11.3934C84.0133 11.385 84.0486 11.3889 84.0794 11.4044C84.1282 11.4289 84.159 11.4791 84.159 11.5339V11.6619C84.159 11.7289 84.14 11.7944 84.1042 11.8509L83.7131 12.4684L83.2035 13.4924L82.6939 14.3884L82.1206 15.5404L81.874 16.0714C81.7416 16.3565 81.6416 16.6557 81.576 16.9633L81.5141 17.2537C81.4938 17.3485 81.4836 17.4454 81.4836 17.5424V17.6258C81.4836 17.811 81.5318 17.993 81.6233 18.1539C81.6992 18.2873 81.8029 18.4027 81.9274 18.4921L82.0667 18.592C82.1451 18.6482 82.2275 18.6981 82.3136 18.7413L82.466 18.8178C82.6174 18.894 82.7775 18.9511 82.9427 18.9879L82.9761 18.9954C83.169 19.0385 83.3675 19.0504 83.5641 19.0306C83.7889 19.008 84.0079 18.9444 84.2101 18.8428L84.2623 18.8165C84.4473 18.7236 84.6182 18.6046 84.7698 18.4633L85.433 17.8444L87.2166 15.7964L88.0447 14.6444L88.7454 13.4924L88.8473 13.3219C88.9057 13.2241 88.9365 13.1122 88.9365 12.9982V12.9164C88.9365 12.8333 88.9098 12.7525 88.8601 12.686C88.788 12.5893 88.6747 12.5324 88.5543 12.5324H88.5365C88.4255 12.5324 88.3193 12.5767 88.2408 12.6554L87.9916 12.9058C87.9422 12.9555 87.8969 13.0091 87.8563 13.0663L87.2803 13.8764L86.5159 14.9644L85.6878 15.9244L84.9871 16.7564L84.6563 17.1442C84.6221 17.1842 84.5838 17.2204 84.5419 17.252L84.448 17.3228C84.3845 17.3705 84.3073 17.3964 84.2279 17.3964H84.1516C84.0767 17.3964 84.0067 17.3588 83.9651 17.2961C83.9268 17.2383 83.9171 17.1658 83.939 17.0999L84.0316 16.8204L84.4138 15.9244L85.1145 14.7084L85.6878 13.4924L86.1974 12.4684L86.2863 12.2899C86.4383 11.9845 86.5374 11.6553 86.5796 11.3164V11.2171C86.5796 10.9878 86.5265 10.7616 86.4244 10.5566C86.3172 10.3411 86.1592 10.1552 85.964 10.0152L85.8152 9.90842L85.5619 9.767C85.3521 9.64988 85.116 9.58842 84.876 9.58842C84.7384 9.58842 84.6017 9.60858 84.4701 9.64826L84.3885 9.67286C84.1527 9.74396 83.932 9.85834 83.7376 10.0102L83.4583 10.2284L82.885 10.8044L82.4391 11.3804L82.2735 11.6023C82.2575 11.6238 82.2324 11.6364 82.2056 11.6364C82.1587 11.6364 82.1206 11.5982 82.1206 11.5511V11.3196C82.1206 11.2356 82.0875 11.155 82.0283 11.0956L81.915 10.9818C81.8824 10.949 81.8465 10.9194 81.808 10.8937L81.2925 10.5484L80.8403 10.2454C80.7601 10.1918 80.6721 10.1509 80.5795 10.1243L80.4197 10.0784C80.3248 10.0512 80.2236 10.0564 80.132 10.0932C80.0189 10.1387 79.9292 10.2288 79.884 10.3424L79.8669 10.3852C79.8409 10.4507 79.8274 10.5207 79.8274 10.5913V10.6953C79.8274 10.8516 79.7942 11.006 79.7298 11.1483L79.5089 11.6364L78.9356 13.1084L78.3623 14.1964L77.8527 15.1564C77.5986 15.5395 77.3073 15.8964 76.9834 16.2219L76.9609 16.2444L76.6179 16.5399C76.5494 16.5988 76.4758 16.651 76.3976 16.6959L76.1029 16.8651C76.0809 16.8777 76.0558 16.8844 76.0304 16.8844C75.927 16.8844 75.8561 16.7795 75.8946 16.683L75.9417 16.5644L76.2602 15.9884L76.7061 15.1564L77.152 14.1964L77.3848 13.4952C77.4419 13.323 77.4844 13.1462 77.5118 12.9669L77.5528 12.6996C77.5826 12.5043 77.5782 12.3053 77.5397 12.1116C77.4941 11.8826 77.4017 11.6657 77.2685 11.4744L77.1345 11.282C77.0616 11.1774 76.9758 11.0824 76.8793 10.9992C76.6823 10.8295 76.4451 10.7136 76.1907 10.6624L76.1168 10.6476C76.0005 10.6242 75.882 10.6124 75.7633 10.6124H75.6869C75.3919 10.6124 75.0991 10.6634 74.8213 10.7631L74.6504 10.8244C74.45 10.8963 74.2564 10.9857 74.0716 11.0918L73.9646 11.1532C73.6277 11.3467 73.3143 11.5788 73.0304 11.8449L72.502 12.3404L72.3593 12.4949C71.9029 12.9886 71.4824 13.5145 71.1006 14.0684L70.6547 14.7084L70.4351 15.076C70.3275 15.2563 70.2516 15.4538 70.2105 15.66C70.1672 15.8771 70.0852 16.0847 69.9684 16.2724L69.8266 16.5004L69.1259 17.3964L68.4889 18.1004L68.3104 18.2797C67.8784 18.7138 67.4048 19.1039 66.8964 19.4444L66.5314 19.6278C66.4389 19.6743 66.3316 19.682 66.2335 19.6491C66.0932 19.6021 65.9914 19.4796 65.9706 19.3325L65.9541 19.2176C65.9453 19.1559 65.9466 19.0932 65.9577 19.0318L66.0053 18.7682C66.0471 18.5378 66.1246 18.3154 66.235 18.1092L66.9601 16.7564L68.2341 14.0684L69.4444 11.4444L70.4636 9.39642L70.9732 8.18042L71.0007 8.11824C71.1464 7.78878 71.4145 7.52949 71.7476 7.39559C71.8257 7.3642 71.9065 7.34008 71.9889 7.32351L72.8204 7.15642L74.0944 7.02842H75.4321H75.9321C76.4898 7.02842 77.0467 7.07121 77.5979 7.15642L78.1405 7.31996C78.2035 7.3389 78.2675 7.35311 78.3327 7.36243L78.5715 7.39672C78.6431 7.40701 78.7162 7.3982 78.7834 7.37119C78.9175 7.31732 79.0139 7.19704 79.0376 7.05393L79.0387 7.04751C79.0545 6.95228 79.0377 6.85447 78.9911 6.77007L78.8358 6.48925C78.7752 6.3799 78.6999 6.27955 78.6119 6.19108L78.4611 6.03952C78.3112 5.88911 78.1385 5.76392 77.9491 5.66879C77.8005 5.59417 77.6432 5.53873 77.4809 5.50377L77.2393 5.45176C76.9696 5.39369 76.6945 5.36442 76.4187 5.36442H75.7506L74.8588 5.42842L74.0944 5.55642L73.0752 5.74842L72.1198 6.00442L71.9939 6.03605C71.9118 6.05667 71.8248 6.04154 71.7545 5.99439C71.7021 5.9593 71.662 5.90855 71.6398 5.84931L71.5658 5.65075C71.5113 5.50473 71.4221 5.37427 71.3062 5.27066L71.0551 5.04638C70.9581 4.95989 70.8543 4.88174 70.7443 4.81274L70.4481 4.62671C70.416 4.60656 70.3823 4.58931 70.3471 4.57519L70.2189 4.52371C70.1314 4.48854 70.0332 4.49265 69.9489 4.535C69.8706 4.57433 69.811 4.64328 69.7834 4.7267L69.7351 4.87233C69.7113 4.94392 69.6992 5.01889 69.6992 5.09436V5.16177C69.6992 5.29578 69.6752 5.42869 69.6283 5.55416L69.3596 6.27407C69.3312 6.3502 69.2972 6.42411 69.258 6.49517C69.0894 6.80008 68.8286 7.04319 68.5134 7.18937L68.1704 7.34842L67.1512 7.92442L66.2521 8.58686C66.2146 8.61445 66.181 8.64687 66.152 8.68328L65.9862 8.89158C65.9586 8.92623 65.9536 8.97383 65.9734 9.01352C65.9925 9.05208 66.0317 9.07642 66.0746 9.07642H66.2474C66.2975 9.07642 66.347 9.06684 66.3934 9.04819L66.9601 8.82042L67.5692 8.54229C67.6302 8.51441 67.6931 8.49113 67.7577 8.47262L68.0422 8.39093C68.0845 8.37881 68.1291 8.37805 68.1718 8.38877C68.2832 8.41677 68.3615 8.51743 68.3615 8.6329V8.68213C68.3615 8.73099 68.3501 8.77917 68.3285 8.82287L67.9156 9.65242L66.9601 11.8284L66.1957 13.4284L65.2402 15.1564L64.221 17.3964C63.9671 17.8641 63.6586 18.2997 63.3019 18.6938L63.2018 18.8044L62.5648 19.4444L61.9892 19.9176C61.9062 19.9858 61.8145 20.0427 61.7164 20.0863L61.4468 20.2068C61.3465 20.2516 61.2331 20.2571 61.1289 20.2222C60.991 20.176 60.8848 20.0645 60.8449 19.9241L60.8203 19.8377C60.7946 19.7474 60.79 19.6524 60.8067 19.5598L60.8659 19.2328C60.8943 19.0757 60.9409 18.9227 61.0049 18.7765L61.6093 17.3964L62.947 14.5164L64.0299 12.2764L64.7943 10.7404L65.6224 8.62842L66.1957 6.96442L66.301 6.59417C66.3157 6.54259 66.3231 6.48921 66.3231 6.43556C66.3231 6.28244 66.2626 6.1356 66.1548 6.02732L65.955 5.82659C65.9033 5.77458 65.8471 5.7272 65.7871 5.68502L65.4022 5.41433C65.2967 5.34019 65.1712 5.30042 65.0424 5.30042H65.0306C64.9586 5.30042 64.8874 5.31421 64.8206 5.34104C64.6814 5.39699 64.57 5.5062 64.5109 5.64466L64.4121 5.87642L64.0936 6.70842L63.7114 7.73242L63.1381 9.14042L62.5648 10.4844L61.8641 12.1484L60.7812 14.1324L59.762 15.6684L58.7428 16.9484L57.7873 18.1004L56.577 19.3804L55.6852 20.1484L55.2334 20.5115C55.1105 20.6103 54.9755 20.6929 54.8315 20.7572L54.6581 20.8347C54.5373 20.8886 54.4067 20.9164 54.2746 20.9164H54.1828C54.1233 20.9164 54.0644 20.905 54.0093 20.8828C53.8626 20.824 53.7556 20.6947 53.7246 20.539L53.6657 20.2431C53.6532 20.1804 53.6509 20.116 53.6588 20.0526C53.6899 19.803 53.8737 19.6 54.1181 19.5454ZM54.4246 18.0551L54.6339 17.3398C54.6976 17.1223 54.7863 16.913 54.8982 16.7161L55.0863 16.3855C55.357 15.9096 55.6897 15.472 56.0754 15.0844L56.3222 14.8364L56.8692 14.3968C56.9275 14.3499 57 14.3244 57.0746 14.3244H57.1018C57.2095 14.3244 57.3083 14.3857 57.3564 14.4826C57.3878 14.5456 57.3949 14.618 57.3766 14.6859L57.2483 15.1584C57.2255 15.2423 57.1958 15.3241 57.1596 15.403L57.0268 15.6918C56.8971 15.9744 56.7432 16.2451 56.5669 16.5009L56.2585 16.9484L55.9148 17.3321C55.762 17.5026 55.5946 17.6593 55.4143 17.8001L55.1533 18.0041C55.1258 18.0256 55.0962 18.0443 55.065 18.0599L54.6678 18.2595C54.5688 18.3093 54.4495 18.2541 54.4227 18.1462C54.4151 18.1163 54.4158 18.0848 54.4246 18.0551ZM72.0055 18.0217L72.0489 17.7598C72.0536 17.7316 72.0669 17.7055 72.087 17.6854C72.1403 17.6318 72.2266 17.6318 72.28 17.6854L72.6294 18.0364L72.9879 18.3451C73.0433 18.3929 73.0752 18.4628 73.0752 18.5362C73.0752 18.5859 73.0606 18.6345 73.0332 18.6759L72.9986 18.7281C72.9652 18.7784 72.9221 18.8217 72.8719 18.8553L72.7008 18.9699C72.6143 19.0279 72.5084 19.0489 72.4064 19.0284C72.3045 19.0079 72.2148 18.9476 72.1571 18.8607L72.1 18.7746C72.0298 18.6688 71.9924 18.5445 71.9924 18.4176V18.1804C71.9924 18.1271 71.9968 18.074 72.0055 18.0217ZM73.6952 17.0164L73.5717 16.5822C73.496 16.3161 73.4638 16.0394 73.4764 15.763L73.4879 15.5076C73.5099 15.0213 73.6175 14.5428 73.8054 14.0942L73.8728 13.9336C73.9779 13.6825 74.103 13.4404 74.2467 13.2094L74.5075 12.7902C74.614 12.6189 74.7396 12.4603 74.8818 12.3175L75.2459 11.9516C75.3263 11.8708 75.4259 11.8119 75.5352 11.7806L75.6165 11.7572C75.7427 11.721 75.8783 11.7389 75.9909 11.8068C76.0828 11.8623 76.1534 11.9473 76.1911 12.0482L76.2474 12.1993C76.2978 12.3342 76.3165 12.479 76.3023 12.6224L76.2809 12.8375C76.2672 12.975 76.2383 13.1106 76.1949 13.2417L75.9417 14.0044L75.4958 14.9644L75.1958 15.6052C75.0563 15.9029 74.895 16.1899 74.7134 16.4637L74.3737 16.9756C74.3575 17.0001 74.3389 17.0229 74.3182 17.0437L74.2115 17.1508C74.0812 17.2818 73.8663 17.2699 73.7511 17.1252C73.7255 17.093 73.7065 17.056 73.6952 17.0164Z" fill="white"/>
<path d="M48.8693 8.43646H48.3597V6.26046H47.7227V5.87646H49.5063V6.26046H48.8693V8.43646Z" fill="white"/>
<path d="M52.1815 5.87646H51.6719V8.43646H52.1815V7.28446H52.8185V8.43646H53.3281V5.87646H52.8185V6.77246H52.1815V5.87646Z" fill="white"/>
<path d="M56.8951 7.28453V6.77253H56.2581V6.26053H57.2773V5.74854H55.7485V8.43653H57.2773V7.92453H56.2581V7.28453H56.8951Z" fill="white"/>
</g>
<defs>
<clipPath id="clip0_54_1699">
<rect width="73" height="32" fill="white" transform="translate(16 4.5)"/>
</clipPath>
</defs>
</svg>
